<svg id="Tutor" xmlns="http://www.w3.org/2000/svg" width="123.6" height="99.538" viewBox="0 0 123.6 99.538">
  <defs>
    <style>
      .cls-1 {
        fill: rgba(29,161,242,0.58);
      }

      .cls-2 {
        fill: #1da1f2;
      }

      .cls-3 {
        fill: #fff;
      }
    </style>
  </defs>
  <g id="Group_15050" data-name="Group 15050" transform="translate(37.133)">
    <path id="Path_18651" data-name="Path 18651" class="cls-1" d="M602.168,622.644c.13,0,.259,0,.387,0-.077,0-.152-.008-.229-.008C602.274,622.638,602.221,622.642,602.168,622.644Z" transform="translate(-583.043 -558.652)"/>
    <path id="Path_18652" data-name="Path 18652" class="cls-1" d="M630.187,478H567.106a8.168,8.168,0,0,0-8.168,8.167v55.844l15.945-3.985a12.349,12.349,0,0,1,3.337-.464c4.665,0,8.577,2.7,9.734,6.715a9.169,9.169,0,0,1-1.447,7.837,11.667,11.667,0,0,1-5.645,4.189h49.325a8.168,8.168,0,0,0,8.167-8.167V486.167A8.168,8.168,0,0,0,630.187,478Z" transform="translate(-558.938 -478)"/>
  </g>
  <path id="Path_18653" data-name="Path 18653" class="cls-2" d="M536.9,626.153c-.795-2.76-4.233-4.193-7.679-3.2L502.207,629.7a5.807,5.807,0,0,0-.6.212,17.33,17.33,0,0,0-26.6,14.4H475v13.87h34.674V644.32h-.006a17.356,17.356,0,0,0-.491-3.874l22.922-7.5C535.545,631.956,537.694,628.913,536.9,626.153Z" transform="translate(-475 -558.652)"/>
  <ellipse id="Ellipse_437" data-name="Ellipse 437" class="cls-2" cx="10.402" cy="10.854" rx="10.402" ry="10.854" transform="translate(6.936 45.093)"/>
  <rect id="Rectangle_19610" data-name="Rectangle 19610" class="cls-2" width="93.518" height="12.246" transform="translate(30.082)"/>
  <path id="Path_18654" data-name="Path 18654" class="cls-3" d="M642.505,546.132l-18-10.393a5.059,5.059,0,0,0-7.589,4.381v20.787a5.059,5.059,0,0,0,7.589,4.381l18-10.393A5.059,5.059,0,0,0,642.505,546.132Z" transform="translate(-554.133 -509.814)"/>
</svg>
